<svg width="140" height="33" viewBox="0 0 140 33" fill="none" xmlns="http://www.w3.org/2000/svg">
<g clip-path="url(#clip0_266_29571)">
<path d="M13.5105 33L3.95384 23.3331C1.40665 20.7518 0 17.3196 0 13.6663C0 6.13372 6.06382 0 13.5105 0C19.6789 0 25.0631 4.21573 26.5981 10.2533L26.9783 11.7531H18.1629L17.8208 11.1522C16.9321 9.59956 15.2831 8.63336 13.5105 8.63336C10.7685 8.63336 8.53496 10.8926 8.53496 13.6663C8.53496 15.0122 9.05295 16.2765 9.99389 17.2235C10.9348 18.1752 12.1847 18.6992 13.5105 18.6992C14.8364 18.6992 16.091 18.1752 17.0272 17.2235C17.3313 16.9158 17.5974 16.5649 17.816 16.1803L18.1582 15.5795H26.9735L26.5933 17.0792C25.9946 19.4347 24.7733 21.5978 23.0625 23.3283L13.5058 32.9952L13.5105 33ZM5.61711 21.617L5.64087 21.6411L13.5153 29.6063L21.3897 21.6411C22.4304 20.5883 23.2525 19.3433 23.8086 17.9878H19.4983C19.2607 18.3243 18.9993 18.6367 18.7142 18.9251C17.3265 20.3288 15.4827 21.1027 13.52 21.1027C11.5574 21.1027 9.71351 20.3288 8.32111 18.9251C6.93347 17.5215 6.16836 15.6564 6.16836 13.6663C6.16836 9.56591 9.4664 6.22986 13.52 6.22986C15.8961 6.22986 18.1297 7.40757 19.5031 9.34479H23.8181C22.1168 5.18674 18.0821 2.39388 13.5248 2.39388C7.37067 2.39869 2.37135 7.45564 2.37135 13.6663C2.37135 16.6658 3.52138 19.4875 5.61711 21.617Z" fill="#22C0FE"/>
<path d="M38.0029 16.5988V16.5555C38.0029 12.109 41.3152 8.46533 46.0674 8.46533C48.9853 8.46533 50.7293 9.45076 52.1645 10.8784L50.8957 12.359C50.4157 12.9214 49.5983 13.0127 48.99 12.5945C48.1014 11.9889 47.1604 11.6379 46.0437 11.6379C43.4347 11.6379 41.5576 13.8299 41.5576 16.5122V16.8007C41.5576 19.3772 43.62 21.5211 46.1672 21.4731C47.398 21.449 48.2962 21.0693 49.1516 20.4395C49.7314 20.0165 50.525 20.0646 51.0287 20.579L52.2738 21.8528C50.6818 23.5737 48.914 24.6457 45.9344 24.6457C41.3817 24.6457 38.0029 21.0933 38.0029 16.5988Z" fill="white"/>
<path d="M60.6287 8.61914H62.8195L69.4488 24.3765H67.0632C66.3551 24.3765 65.7183 23.9438 65.4522 23.2805L64.478 20.8674H57.939L56.5228 24.3765H53.0537L59.3124 9.50363C59.5357 8.97005 60.0585 8.61914 60.6335 8.61914H60.6287ZM63.2614 17.8293L61.2085 12.758L59.1555 17.8293H63.2662H63.2614Z" fill="white"/>
<path d="M127.188 8.73438V11.7964H131.893V24.3811H133.86C134.654 24.3811 135.296 23.7322 135.296 22.9294V11.7964H140V8.73438H127.184H127.188Z" fill="white"/>
<path d="M82.0607 18.7906C84.0281 18.0551 85.3729 16.464 85.3729 13.9403V13.8971C85.3729 12.4213 84.9072 11.1907 84.0471 10.3207C83.0301 9.29199 81.5046 8.73438 79.542 8.73438H73.9059C73.1123 8.73438 72.4707 9.38332 72.4707 10.1861V24.3811H75.8733V11.8445H79.2521C80.9106 11.8445 81.9276 12.604 81.9276 14.0798V14.123C81.9276 15.4401 80.9772 16.3342 79.3186 16.3342H76.5338L78.5488 19.3722L81.3478 23.5976C81.671 24.0879 82.2127 24.3811 82.7972 24.3811H85.8434L82.0654 18.7954L82.0607 18.7906Z" fill="white"/>
<path d="M95.7193 8.73438H97.4254L104.673 18.3676V8.73438H108.032V24.3811H105.998C105.457 24.3811 104.943 24.1264 104.611 23.6889L97.644 14.4355V24.3811H94.2842V10.1861C94.2842 9.38332 94.9257 8.73438 95.7193 8.73438Z" fill="white"/>
<path d="M114.095 8.73438H124.327V11.7964H116.039V14.969H123.329V18.0311H116.039V21.3191H124.436V24.3811H112.66V10.1861C112.66 9.38332 113.302 8.73438 114.095 8.73438Z" fill="white"/>
</g>
<defs>
<clipPath id="clip0_266_29571">
<rect width="140" height="33" fill="white"/>
</clipPath>
</defs>
</svg>
